<svg xmlns="http://www.w3.org/2000/svg" viewBox="0 0 256 256" role="img" aria-label="SeedBank Insights app icon">
  <rect width="256" height="256" rx="48" fill="#213921"/>
  <path d="M62 54h104l28 30v118H62V54Z" fill="#f8faf4"/>
  <path d="M166 54v30h28" fill="#cfd82d"/>
  <path d="M82 94h92M82 116h68M82 138h42" stroke="#6d8d24" stroke-width="10" stroke-linecap="round"/>
  <path d="M122 197c6-42 26-70 62-83-2 34-24 62-62 83Z" fill="#6d8d24"/>
  <path d="M121 198c-7-35-25-58-55-70 1 31 20 55 55 70Z" fill="#cfd82d"/>
  <path d="M126 202c0-44 2-76 18-104" stroke="#213921" stroke-width="9" stroke-linecap="round"/>
  <circle cx="77" cy="172" r="8" fill="#ffc20e"/>
</svg>
